/vscmnt/brussel_pixiu_data/_data_brussel/112/vsc11236/PredSimResults/SUBJ10mtu3D/weighted-trackIG/worker_01.mot
version=1
nRows=4
nColumns=50
inDegrees=yes
endheader
                time	         pelvis_tilt	         pelvis_list	     pelvis_rotation	           pelvis_tx	           pelvis_ty	           pelvis_tz	       hip_flexion_r	     hip_adduction_r	      hip_rotation_r	        knee_angle_r	       ankle_angle_r	         mtp_angle_r	       hip_flexion_l	     hip_adduction_l	      hip_rotation_l	        knee_angle_l	       ankle_angle_l	         mtp_angle_l	    lumbar_extension	      lumbar_bending	     lumbar_rotation	 ercspn_r/activation	 intobl_r/activation	 extobl_r/activation	    abd_r/activation	    add_r/activation	hamstrings_r/activation	bifemsh_r/activation	glut_max_r/activation	iliopsoas_r/activation	rect_fem_r/activation	  vasti_r/activation	gastroc_r/activation	 soleus_r/activation	tib_ant_r/activation	 ercspn_l/activation	 intobl_l/activation	 extobl_l/activation	    abd_l/activation	    add_l/activation	hamstrings_l/activation	bifemsh_l/activation	glut_max_l/activation	iliopsoas_l/activation	rect_fem_l/activation	  vasti_l/activation	gastroc_l/activation	 soleus_l/activation	tib_ant_l/activation	
          1.12280946	         -3.77530408	         -2.93957177	          9.91133846	          1.30245897	          0.82914291	         -0.01334426	         27.61562782	         -0.69594046	         -7.67205420	         -3.26586356	          6.89608784	          0.25286404	        -14.30277479	         -3.42493781	          5.64726779	         -7.52077441	          9.49917380	         24.71038701	         -8.11875737	          1.19324581	         -3.60156493	          0.09052407	          0.16658985	          0.02136809	          0.01208283	          0.09488494	          0.03688185	          0.14914674	          0.01000003	          0.07231574	          0.01135883	          0.01000013	          0.01537970	          0.01105088	          0.26052295	          0.02719782	          0.01000003	          0.01000005	          0.04051517	          0.01807811	          0.02148679	          0.13383036	          0.03256345	          0.30194898	          0.01000072	          0.01000017	          0.23747627	          0.23220401	          0.01784291	
          1.13403755	         -3.84510807	         -2.75936205	          9.71805196	          1.31762118	          0.82755235	         -0.01302431	         27.67051453	         -0.45918958	         -6.53954456	         -4.78730652	          6.62829438	          0.25490365	        -14.39369486	         -3.20920719	          4.95469193	         -9.25750144	          8.93604637	         26.33367528	         -7.91767522	          1.54146326	         -3.78748937	          0.07625429	          0.14032980	          0.01799972	          0.01017816	          0.17258315	          0.03106929	          0.12563966	          0.05747134	          0.06091621	          0.01000038	          0.01000007	          0.01985913	          0.01409322	          0.26036961	          0.07629676	          0.01000005	          0.01000015	          0.03412853	          0.06214302	          0.01809987	          0.11273394	          0.02743029	          0.31658259	          0.01000052	          0.01000043	          0.20004153	          0.21764338	          0.01503023	
          1.14526565	         -3.89974300	         -2.58971726	          9.46824280	          1.33310654	          0.82606104	         -0.01267429	         27.55016246	         -0.26124333	         -5.38410482	         -6.32451383	          6.35064560	          0.24234466	        -14.35633432	         -2.99189222	          4.20602026	        -11.29029175	          8.28740153	         27.88700780	         -7.69413661	          1.91922557	         -3.95089057	          0.06423906	          0.12553635	          0.01516233	          0.05058629	          0.14537812	          0.04279361	          0.10583534	          0.05585415	          0.05131364	          0.01000011	          0.01000003	          0.01672866	          0.01187166	          0.29314251	          0.08992257	          0.01000002	          0.01000011	          0.02874866	          0.05365519	          0.01524750	          0.09496307	          0.02310630	          0.30332009	          0.01000034	          0.01000012	          0.16850784	          0.20106804	          0.01266093	
          1.15649374	         -3.94133779	         -2.42819904	          9.16043365	          1.34871361	          0.82482619	         -0.01222732	         27.29279776	         -0.05240404	         -4.30739456	         -7.62837194	          5.96452669	          0.23411637	        -14.11855187	         -2.77699101	          3.40603402	        -13.70278786	          7.51439226	         29.30460128	         -7.47103055	          2.31180995	         -4.09136814	          0.07955436	          0.10574736	          0.01277222	          0.10061546	          0.15231626	          0.04387255	          0.08915206	          0.06910718	          0.04322478	          0.01000016	          0.01000007	          0.01409166	          0.01000031	          0.31416133	          0.11403487	          0.01000004	          0.01000010	          0.02421684	          0.05641678	          0.01572739	          0.07999353	          0.01946393	          0.29121558	          0.01000043	          0.01113512	          0.14194498	          0.16938092	          0.01066512	
